<?xml version="1.0" standalone="no"?><!DOCTYPE svg PUBLIC "-//W3C//DTD SVG 1.1//EN" "http://www.w3.org/Graphics/SVG/1.1/DTD/svg11.dtd"><svg t="1537367857391" class="icon" style="" viewBox="0 0 1024 1024" version="1.1" xmlns="http://www.w3.org/2000/svg" p-id="3216" xmlns:xlink="http://www.w3.org/1999/xlink" width="200" height="200"><defs><style type="text/css"></style></defs><path d="M304.90624 1005.50656H7.7824v-53.20704c74.99776-3.50208 112.55808-46.05952 112.55808-127.71328V202.0352C123.2896 145.34656 88.80128 118.72256 16.77312 122.22464V69.0176h333.14816L512 702.19776h4.5056L678.6048 69.0176h337.63328v53.20704c-81.03936-3.4816-118.59968 26.60352-112.55808 90.46016v649.15456c-6.0416 63.83616 31.51872 94.02368 112.55808 90.46016v53.20704H615.56736v-53.20704c72.04864 3.56352 106.47552-26.624 103.56736-90.46016V170.10688L498.50368 1005.50656h-99.04128L187.86304 170.10688v654.47936c0 85.13536 38.97344 127.71328 117.0432 127.71328v53.20704z" p-id="3217"></path></svg>